#format: frame checksums
#version: 2
#hash: MD5
#software: Lavf62.3.100
#tb 0: 1/2
#media_type 0: video
#codec_id 0: rawvideo
#dimensions 0: 180x320
#sar 0: 1/1
#stream#, dts,        pts, duration,     size, hash
0,          0,          0,        1,    86400, f72f279a380da870ffe3acd173ff5c3d
0,          1,          1,        1,    86400, f421c9c202c3b41aebdf0ac6324a9457
0,          2,          2,        1,    86400, e8ca608d258fc07b9cb0f2f6c9593d81
